<?xml version="1.0" encoding="UTF-8"?>
<svg width="1280px" height="640px" viewBox="0 0 1280 640" version="1.1" xmlns="http://www.w3.org/2000/svg" xmlns:xlink="http://www.w3.org/1999/xlink">
    <!-- Generator: Sketch 43.2 (39069) - http://www.bohemiancoding.com/sketch -->
    <title>Artboard</title>
    <desc>Created with Sketch.</desc>
    <defs></defs>
    <g id="Page-1" stroke="none" stroke-width="1" fill="none" fill-rule="evenodd">
        <g id="Artboard" fill-rule="nonzero">
            <g id="RedHat" transform="translate(0.000000, 114.000000)">
                <path d="M378.395318,315.675809 C370.563981,313.886575 362.250928,312.744219 353.855295,312.744219 C339.472612,312.744219 326.397445,315.249145 316.749349,319.254275 C315.675809,319.791045 314.932589,320.905875 314.932589,322.158339 C314.932589,322.626292 315.028932,323.094245 315.221619,323.479619 C316.350212,326.782819 314.478399,330.347522 305.146859,332.425785 C291.300946,335.453718 282.561229,349.753821 277.565139,354.474645 C271.688196,360.048795 255.117143,363.475865 257.608306,360.131375 C259.562699,357.557631 267.022426,349.451028 271.550563,340.697548 C275.624509,332.879975 279.244266,330.650315 284.212829,323.176825 C285.685506,320.988455 291.342236,313.294752 292.993836,307.211359 C294.838122,301.265599 294.218772,293.805872 294.934466,290.736649 C295.952952,286.304856 300.123242,276.711813 300.439799,271.261533 C300.618722,268.219836 287.626136,275.665799 281.460163,275.665799 C275.294189,275.665799 269.279613,271.963463 263.774279,271.715723 C256.96143,271.385403 252.570926,276.959553 246.39119,275.968593 C242.88154,275.418059 239.894896,272.321309 233.75645,272.101096 C224.989207,271.770776 214.26757,276.959553 194.15934,276.326439 C174.367667,275.679563 156.089961,251.3047 153.598798,247.437203 C150.667208,242.909066 147.088741,242.909066 143.207481,246.487533 C139.312458,250.02471 134.495291,247.230753 133.146485,244.849696 C130.545215,240.307796 123.608495,227.053707 112.859332,224.25975 C97.9949319,220.406017 90.4663887,232.490223 91.4435853,242.083266 C92.4345453,251.84147 98.7519152,254.580373 101.683505,259.769149 C104.587568,264.944163 106.087772,268.302416 111.565578,270.600893 C115.474365,272.224966 116.919515,274.619786 115.763395,277.812879 C114.744908,280.593073 110.698488,281.239949 108.014638,281.363819 C102.357908,281.639086 98.3940685,280.097593 95.4900053,278.253306 C92.131752,276.092463 89.3790853,273.119583 86.4612587,268.068439 C83.0479521,262.480526 77.6940155,260.058179 71.4592256,260.058179 C68.4863457,260.058179 65.692389,260.842689 63.2287524,262.095153 C53.4567859,267.201349 41.813006,270.201756 29.2883729,270.201756 L15.1396664,270.215519 C42.2396694,350.552095 118.254558,408.385621 207.78504,408.385621 C279.285556,408.385621 342.170225,371.499888 378.395318,315.675809" id="Shape" fill="#FFFFFF"></path>
                <path d="M378.395318,315.703335 C370.563981,313.886575 362.250928,312.757982 353.855295,312.757982 C339.472612,312.757982 326.397445,315.262909 316.749349,319.268039 C315.675809,319.804809 314.932589,320.905875 314.932589,322.172102 C314.932589,322.626292 315.028932,323.108009 315.221619,323.479619 C316.350212,326.796582 314.478399,330.375048 305.146859,332.439548 C291.300946,335.481245 282.561229,349.753821 277.565139,354.474645 C271.688196,360.062558 255.117143,363.489628 257.608306,360.158901 C259.562699,357.557631 267.022426,349.451028 271.550563,340.697548 C275.624509,332.893738 279.244266,330.650315 284.212829,323.190589 C285.685506,321.002219 291.342236,313.294752 292.993836,307.225122 C294.838122,301.265599 294.218772,293.819636 294.934466,290.750412 C295.952952,286.318619 300.123242,276.725576 300.439799,271.289059 C300.618722,268.219836 287.626136,275.665799 281.460163,275.665799 C275.294189,275.665799 269.279613,271.977226 263.774279,271.729486 C256.96143,271.385403 252.570926,276.973316 246.39119,275.982356 C242.88154,275.431823 239.894896,272.335073 233.75645,272.101096 C224.989207,271.784539 214.26757,276.973316 194.15934,276.326439 C174.367667,275.679563 156.089961,251.332226 153.598798,247.46473 C150.667208,242.909066 147.088741,242.909066 143.207481,246.487533 C139.312458,250.038473 134.495291,247.244516 133.146485,244.86346 C130.545215,240.307796 123.608495,227.053707 112.859332,224.25975 C97.9949319,220.406017 90.4663887,232.490223 91.4435853,242.09703 C92.4345453,251.84147 98.7519152,254.580373 101.683505,259.769149 C104.587568,264.944163 106.087772,268.316179 111.565578,270.614656 C115.474365,272.224966 116.919515,274.633549 115.763395,277.826643 C114.744908,280.606836 110.698488,281.253713 108.014638,281.377583 C102.357908,281.639086 98.3940685,280.111356 95.4900053,278.239543 C92.131752,276.119989 89.3790853,273.133346 86.4612587,268.068439 C83.0479521,262.494289 77.6940155,260.058179 71.4592256,260.058179 C68.4863457,260.058179 65.692389,260.856453 63.2287524,262.095153 C53.4567859,267.201349 41.813006,270.215519 29.2883729,270.215519 L15.1396664,270.215519 C8.25799988,249.832023 4.54189993,227.989613 4.54189993,205.293877 C4.54189993,93.0951853 95.5312953,2.1608433 207.78504,2.1608433 C320.011259,2.1608433 411.014417,93.0951853 411.014417,205.293877 C411.014417,246.005816 399.026554,283.882509 378.395318,315.703335" id="Shape" fill="#000000"></path>
                <path d="M252.535142,297.074664 C253.581155,298.079387 255.384152,301.506457 253.182018,305.869434 C251.943318,308.181674 250.608275,309.791984 248.240982,311.691324 C245.364445,313.9898 239.790295,316.63236 232.137882,311.76014 C228.008882,309.15887 227.747379,308.278017 222.063122,309.021237 C218.002939,309.544244 216.392629,305.429007 217.837779,302.029464 C219.310455,298.629921 225.297505,295.877254 232.770995,300.253994 C236.143012,302.222151 241.373078,306.406204 245.942505,302.690104 C247.855608,301.189901 248.997965,300.171414 251.626762,297.115954 C251.750632,296.992084 251.915792,296.923267 252.108478,296.923267 C252.273638,296.923267 252.425035,296.978321 252.535142,297.074664" id="Shape" fill="#000000"></path>
                <path d="M191.958583,98.8895485 C168.492101,100.582439 166.042227,103.114892 161.651724,107.780662 C155.458224,114.400825 147.282804,99.2336319 147.282804,99.2336319 C142.369294,98.2013819 136.437298,90.3012287 139.644154,82.9378454 C142.809721,75.6432789 148.645374,77.8178855 150.462134,80.0888355 C152.678031,82.8552654 157.426381,87.383402 163.592354,87.218242 C169.758327,87.053082 176.860207,85.7593287 186.78357,85.7593287 C196.830803,85.7593287 203.574837,89.5029553 203.946447,92.7373386 C204.29053,95.4762419 203.13441,98.0637486 191.958583,98.8895485 M216.622476,60.1182391 L216.51237,60.1182391 C216.154523,60.1182391 215.865493,59.8429724 215.865493,59.5126525 C215.865493,59.2649125 216.01689,59.0446991 216.237103,58.9483558 C220.792766,56.5535358 227.57809,54.6266692 235.34061,53.8559225 C237.666613,53.6081825 239.951326,53.4705492 242.139696,53.4705492 L243.309579,53.4705492 C256.343456,53.7733425 266.762299,58.9483558 266.610902,65.031749 C266.445742,71.1151423 255.779159,75.8084389 242.731519,75.5331722 C238.533703,75.4230656 234.569863,74.8174789 231.17032,73.8265189 C230.743656,73.7301756 230.46839,73.3860922 230.46839,72.9731923 C230.46839,72.5740556 230.743656,72.2299723 231.184083,72.1198656 C239.290686,70.2480523 244.782256,67.1650657 244.396883,64.2610024 C243.873876,60.4210324 233.262346,58.3290058 220.655133,59.5952325 C219.265036,59.7328658 217.929993,59.9117891 216.622476,60.1182391 M322.462508,151.245268 C320.453062,157.989301 317.604052,166.618911 304.886732,173.142731 C303.028682,174.092401 302.340515,172.537144 303.180079,171.078231 C307.997245,162.902811 308.836808,160.865838 310.240668,157.658981 C312.181298,152.938158 313.227312,146.235415 309.332288,132.279395 C301.693639,104.794018 285.728172,68.0321557 274.153209,56.1268725 C262.963619,44.620726 242.703993,41.3725794 224.371233,46.0796393 C217.6272,47.800056 204.428163,54.6541959 179.956957,49.1488626 C137.607181,39.6108727 131.331101,60.8064058 128.908754,70.0416023 C126.458881,79.2767988 120.623228,105.523475 120.623228,105.523475 C118.682598,116.231348 116.136381,134.811848 181.91135,147.350244 C212.54853,153.172134 214.090023,161.099814 215.466356,166.784071 C217.902466,176.982701 221.783726,182.818354 226.160466,185.736181 C230.537206,188.654007 226.160466,191.076354 221.30201,191.558071 C208.268133,192.92064 160.027651,179.088491 131.482498,162.889048 C108.139885,148.630234 107.754511,135.802808 113.094685,124.902248 C77.8330252,121.089805 51.3661356,128.205448 46.5764956,144.900371 C38.3322591,173.528104 109.557508,222.44299 190.66483,246.996776 C275.777282,272.747973 363.312081,254.759296 373.042757,201.288747 C377.460787,176.996464 356.994711,159.021551 322.462508,151.245268" id="Shape" fill="#E93442"></path>
                <g id="g3880" transform="translate(399.136661, 289.029996)" fill="#000000">
                    <path d="M9.82289085,15.8126934 L11.6534142,15.8126934 L14.4198441,20.3545934 L16.2090774,20.3545934 L13.2086708,15.7301134 C14.7639274,15.5374268 15.9338108,14.7253901 15.9338108,12.8535768 C15.9338108,10.7753135 14.7088741,9.86693352 12.2452375,9.86693352 L8.24010754,9.86693352 L8.24010754,20.3545934 L9.82289085,20.3545934 L9.82289085,15.8126934 L9.82289085,15.8126934 Z M9.82289085,14.4638868 L9.82289085,11.2019768 L11.9837342,11.2019768 C13.0710375,11.2019768 14.2546841,11.4634802 14.2546841,12.7434701 C14.2546841,14.3675435 13.0710375,14.4638868 11.7222308,14.4638868 L9.82289085,14.4638868 L9.82289085,14.4638868 Z" id="Shape"></path>
                    <path d="M21.9731613,15.1272794 C21.9731613,20.7840094 17.3762081,25.3809626 11.7057148,25.3809626 C6.03522158,25.3809626 1.42450498,20.7840094 1.42450498,15.1272794 C1.42450498,9.47054953 6.03522158,4.8460696 11.7057148,4.8460696 C17.3762081,4.8460696 21.9731613,9.47054953 21.9731613,15.1272794 M11.7057148,6.6765929 C7.02618156,6.6765929 3.24126495,10.4477462 3.24126495,15.1410428 C3.24126495,19.779286 7.02618156,23.5504393 11.7057148,23.5504393 C16.3577214,23.5504393 20.142638,19.779286 20.142638,15.1410428 C20.142638,10.4477462 16.3577214,6.6765929 11.7057148,6.6765929" id="Shape"></path>
                </g>
                <path d="M514.616531,218.096529 C514.616531,199.460976 514.217394,185.76646 513.474174,173.37946 L543.946194,173.37946 L545.267474,199.818823 L546.258434,199.818823 C553.112574,180.219837 569.353307,170.227657 584.369103,170.227657 C587.796173,170.227657 589.80562,170.351527 592.640867,170.998403 L592.640867,204.14051 C589.337667,203.47987 586.25468,203.135786 582.015573,203.135786 C565.251834,203.135786 553.608054,213.80237 550.456251,229.754073 C549.878191,232.850823 549.547871,236.580686 549.547871,240.365602 L549.547871,312.526758 L514.327501,312.526758 L514.616531,218.096529 Z" id="Shape" fill="#000000"></path>
                <path d="M635.140663,252.423659 C636.062806,277.638085 655.592976,288.676278 678.137316,288.676278 C694.322995,288.676278 705.925485,286.130061 716.550778,282.235038 L721.767082,306.444741 C709.861799,311.495884 693.332035,315.253274 673.127462,315.253274 C627.914913,315.253274 601.420497,287.354998 601.420497,244.716192 C601.420497,206.302729 624.72182,169.981293 669.507706,169.981293 C714.789072,169.981293 729.515838,207.183583 729.515838,237.641839 C729.515838,244.193185 728.937778,249.423252 728.277138,252.698925 L635.140663,252.423659 L635.140663,252.423659 Z M696.359969,227.911162 C696.525129,215.014919 690.909689,193.998309 667.333099,193.998309 C645.655849,193.998309 636.640866,213.666113 635.058083,227.911162 L696.359969,227.911162 Z" id="Shape" fill="#000000"></path>
                <path d="M846.025206,252.195187 C846.025206,255.883761 845.749939,259.324594 844.951666,262.462634 C841.414489,277.698644 828.944909,287.498137 814.548463,287.498137 C792.389497,287.498137 779.699703,268.821294 779.699703,243.262784 C779.699703,217.442771 792.265627,197.444648 814.933836,197.444648 C830.775433,197.444648 842.116419,208.620475 845.213169,222.163594 C845.818756,225.012604 846.025206,228.536018 846.025206,231.343738 L846.025206,252.195187 Z M881.204285,119.778159 L846.025206,109.854796 L846.025206,188.360848 L845.447146,188.360848 C839.212356,178.079638 825.476549,170.234538 806.414333,170.234538 C772.928144,170.234538 743.777404,197.926365 743.997617,244.542774 C743.997617,287.319213 770.326874,315.657916 803.579086,315.657916 C823.659789,315.657916 840.478583,306.0924 848.791636,290.498543 L849.410986,290.498543 L850.993769,312.53364 L882.374169,312.53364 C881.727292,303.064467 881.204285,287.75964 881.204285,273.51459 L881.204285,119.778159 L881.204285,119.778159 Z" id="Shape" fill="#000000"></path>
                <path d="M974.3036,170.072131 C963.69207,170.072131 954.181607,173.127591 946.212637,178.054864 C937.92711,182.899558 931.19684,190.400574 927.177947,198.135567 L926.61365,198.135567 L926.61365,133.021238 L912.836554,128.947292 L912.836554,312.536392 L926.61365,312.536392 L926.61365,227.368887 C926.61365,221.712157 927.040314,217.789607 928.499227,213.646844 C934.444987,196.305044 950.782063,182.101284 970.532446,182.101284 C999.050073,182.101284 1008.93215,204.962181 1008.93215,230.038974 L1008.93215,312.536392 L1022.70924,312.536392 L1022.70924,228.53877 C1022.70924,176.664768 987.502636,170.072131 974.3036,170.072131" id="Shape" fill="#000000"></path>
                <path d="M1146.38655,279.453469 C1146.38655,290.477898 1146.82698,301.860175 1148.42353,312.526758 L1135.73373,312.526758 L1133.69676,292.583688 L1133.04988,292.583688 C1126.29209,303.319088 1110.76705,315.706088 1088.62184,315.706088 C1060.58593,315.706088 1047.52453,295.983232 1047.52453,277.430259 C1047.52453,245.292876 1075.93205,225.914103 1132.62322,226.519689 L1132.62322,222.803589 C1132.62322,209.01273 1129.93937,181.541117 1096.96242,181.747567 C1084.76811,181.747567 1072.06455,185.009477 1061.97603,192.12512 L1057.59929,182.119177 C1070.34414,173.489567 1085.88294,170.07626 1098.49015,170.07626 C1138.69285,170.07626 1146.38655,200.245486 1146.38655,225.129593 L1146.38655,279.453469 L1146.38655,279.453469 Z M1132.62322,238.094652 C1102.26131,237.227562 1062.19624,241.824516 1062.19624,275.255652 C1062.19624,295.267538 1075.40904,304.268758 1089.92936,304.268758 C1113.1481,304.268758 1126.3609,289.899838 1131.17807,276.342955 C1132.16903,273.383839 1132.62322,270.383432 1132.62322,267.988612 L1132.62322,238.094652 Z" id="Shape" fill="#000000"></path>
                <path d="M1201.26509,142.572992 L1201.26509,173.251461 L1240.99983,173.251461 L1240.99983,184.427288 L1201.26509,184.427288 L1201.26509,274.94873 C1201.26509,292.662139 1206.75666,303.755386 1221.74493,303.755386 C1228.91563,303.755386 1234.00806,302.819479 1237.57276,301.567016 L1239.23813,312.233599 C1234.73752,314.132939 1228.42015,315.578089 1220.01075,315.578089 C1209.83965,315.578089 1201.40273,312.384996 1195.95245,305.723542 C1189.64884,298.401449 1187.488,286.716379 1187.488,272.498856 L1187.488,184.427288 L1163.98022,184.427288 L1163.98022,173.251461 L1187.488,173.251461 L1187.488,147.651661 L1201.26509,142.572992 L1201.26509,142.572992 Z" id="Shape" fill="#000000"></path>
                <g id="use3884" transform="translate(1248.586184, 289.312144)" fill="#000000">
                    <g id="g3880">
                        <path d="M9.82289085,15.8126934 L11.6534142,15.8126934 L14.4198441,20.3545934 L16.2090774,20.3545934 L13.2086708,15.7301134 C14.7639274,15.5374268 15.9338108,14.7253901 15.9338108,12.8535768 C15.9338108,10.7753135 14.7088741,9.86693352 12.2452375,9.86693352 L8.24010754,9.86693352 L8.24010754,20.3545934 L9.82289085,20.3545934 L9.82289085,15.8126934 L9.82289085,15.8126934 Z M9.82289085,14.4638868 L9.82289085,11.2019768 L11.9837342,11.2019768 C13.0710375,11.2019768 14.2546841,11.4634802 14.2546841,12.7434701 C14.2546841,14.3675435 13.0710375,14.4638868 11.7222308,14.4638868 L9.82289085,14.4638868 L9.82289085,14.4638868 Z" id="Shape"></path>
                        <path d="M21.9731613,15.1272794 C21.9731613,20.7840094 17.3762081,25.3809626 11.7057148,25.3809626 C6.03522158,25.3809626 1.42450498,20.7840094 1.42450498,15.1272794 C1.42450498,9.47054953 6.03522158,4.8460696 11.7057148,4.8460696 C17.3762081,4.8460696 21.9731613,9.47054953 21.9731613,15.1272794 M11.7057148,6.6765929 C7.02618156,6.6765929 3.24126495,10.4477462 3.24126495,15.1410428 C3.24126495,19.779286 7.02618156,23.5504393 11.7057148,23.5504393 C16.3577214,23.5504393 20.142638,19.779286 20.142638,15.1410428 C20.142638,10.4477462 16.3577214,6.6765929 11.7057148,6.6765929" id="Shape"></path>
                    </g>
                </g>
            </g>
        </g>
    </g>
</svg>