<?xml version="1.0" encoding="utf-8"?>
<!-- Generator: Adobe Illustrator 22.1.0, SVG Export Plug-In . SVG Version: 6.00 Build 0)  -->
<svg version="1.1" id="Capa_1" xmlns="http://www.w3.org/2000/svg" xmlns:xlink="http://www.w3.org/1999/xlink" x="0px" y="0px"
	 viewBox="0 0 512 512" style="enable-background:new 0 0 512 512;" xml:space="preserve">
<style type="text/css">
	.st0{opacity:0.1;}
	.st1{fill:#FFFFFF;}
</style>
<g class="st0">
	<path id="rect34754" class="st1" d="M158.8,25.2c-2.4,0.1-4.6,1-6.3,2.7l-27.7,27.7c-3.6,3.6-3.7,9.4-0.2,13.1
		c3.6,3.6,9.4,3.7,13.1,0.2c0.1,0,0.1-0.1,0.2-0.2l11.9-11.9V136h-18.5c-5.1-0.1-9.3,4-9.4,9.1c-0.1,5.1,4,9.3,9.1,9.4
		c0.1,0,0.2,0,0.3,0h26.2c1,0.2,2,0.2,3,0h17c5.1,0.1,9.3-4,9.4-9.1c0.1-5.1-4-9.3-9.1-9.4c-0.1,0-0.2,0-0.3,0h-9.2V34.4
		c0-5.1-4.1-9.2-9.2-9.2C159,25.2,158.9,25.2,158.8,25.2z M260.6,25.2c-2.4,0.1-4.6,1-6.3,2.7l-27.7,27.7c-3.7,3.5-3.8,9.4-0.3,13.1
		c3.5,3.7,9.4,3.8,13.1,0.3c0.1-0.1,0.2-0.2,0.3-0.3l11.9-11.9V136h-18.5c-5.1-0.1-9.3,4-9.4,9.1c-0.1,5.1,4,9.3,9.1,9.4
		c0.1,0,0.2,0,0.3,0h26.2c1,0.2,2,0.2,3,0h17c5.1,0.1,9.3-4,9.4-9.1c0.1-5.1-4-9.3-9.1-9.4c-0.1,0-0.2,0-0.3,0h-9.2V34.4
		c0-5.1-4.1-9.2-9.2-9.2C260.8,25.2,260.7,25.2,260.6,25.2z M52.6,25.3c-17.7,0-32.3,14.6-32.3,32.3v64.6
		c0,17.7,14.6,32.3,32.3,32.3s32.3-14.6,32.3-32.3V57.6C84.9,39.8,70.4,25.3,52.6,25.3z M358.1,25.3c-17.7,0-32.3,14.6-32.3,32.3
		v64.6c0,17.7,14.6,32.3,32.3,32.3c17.7,0,32.3-14.6,32.3-32.3V57.6C390.4,39.8,375.9,25.3,358.1,25.3z M460,25.3
		c-17.7,0-32.3,14.6-32.3,32.3v64.6c0,17.7,14.6,32.3,32.3,32.3s32.3-14.6,32.3-32.3V57.6C492.3,39.8,477.7,25.3,460,25.3z
		 M52.6,43.7c7.8,0,13.9,6,13.9,13.9v64.6c0,7.8-6,13.9-13.9,13.9s-13.9-6-13.9-13.9V57.6C38.8,49.7,44.8,43.7,52.6,43.7z
		 M358.1,43.7c7.8,0,13.9,6,13.9,13.9v64.6c0,7.8-6,13.9-13.9,13.9c-7.8,0-13.9-6-13.9-13.9V57.6C344.3,49.7,350.3,43.7,358.1,43.7z
		 M460,43.7c7.8,0,13.9,6,13.9,13.9v64.6c0,7.8-6,13.9-13.9,13.9s-13.9-6-13.9-13.9V57.6C446.1,49.7,452.1,43.7,460,43.7z M57,191.5
		c-2.4,0.1-4.6,1-6.3,2.7L23,221.9c-3.6,3.6-3.6,9.5,0,13.1c3.6,3.6,9.4,3.6,13.1,0L48,223.1v79.3H29.5c-5.1-0.1-9.3,4-9.4,9.1
		c-0.1,5.1,4,9.3,9.1,9.4c0.1,0,0.2,0,0.3,0h26.2c1,0.2,2,0.2,3,0h17c5.1,0.1,9.3-4,9.4-9.1c0.1-5.1-4-9.3-9.1-9.4
		c-0.1,0-0.2,0-0.3,0h-9.2V200.8c0-5.1-4.1-9.2-9.2-9.2C57.1,191.5,57.1,191.5,57,191.5z M260.6,191.5c-2.4,0.1-4.6,1-6.3,2.7
		l-27.7,27.7c-3.6,3.6-3.7,9.4-0.2,13.1c3.6,3.6,9.4,3.7,13.1,0.2c0.1,0,0.1-0.1,0.2-0.2l11.9-11.9v79.3h-18.5
		c-5.1-0.1-9.3,4-9.4,9.1s4,9.3,9.1,9.4c0.1,0,0.2,0,0.3,0h26.2c1,0.2,2,0.2,3,0h17c5.1,0.1,9.3-4,9.4-9.1c0.1-5.1-4-9.3-9.1-9.4
		c-0.1,0-0.2,0-0.3,0h-9.2V200.8c0-5.1-4.1-9.2-9.2-9.2C260.8,191.5,260.7,191.5,260.6,191.5z M362.5,191.5c-2.4,0.1-4.6,1-6.3,2.7
		l-27.7,27.7c-3.6,3.6-3.7,9.4-0.2,13.1c3.6,3.6,9.4,3.7,13.1,0.2c0.1,0,0.1-0.1,0.2-0.2l11.9-11.9v79.3H335c-5.1-0.1-9.3,4-9.4,9.1
		s4,9.3,9.1,9.4c0.1,0,0.2,0,0.3,0h26.2c1,0.2,2,0.2,3,0h17c5.1,0.1,9.3-4,9.4-9.1s-4-9.3-9.1-9.4c-0.1,0-0.2,0-0.3,0H372V200.8
		c0-5.1-4.1-9.2-9.2-9.2C362.7,191.5,362.6,191.5,362.5,191.5z M154.5,191.6c-17.7,0-32.3,14.6-32.3,32.3v64.6
		c0,17.7,14.6,32.3,32.3,32.3s32.3-14.6,32.3-32.3v-64.6C186.8,206.2,172.2,191.6,154.5,191.6z M460,191.6
		c-17.7,0-32.3,14.6-32.3,32.3v64.6c0,17.7,14.6,32.3,32.3,32.3s32.3-14.6,32.3-32.3v-64.6C492.3,206.2,477.7,191.6,460,191.6z
		 M154.5,210.1c7.8,0,13.9,6,13.9,13.9v64.6c0,7.8-6,13.9-13.9,13.9c-7.8,0-13.9-6-13.9-13.9v-64.6
		C140.6,216.1,146.6,210.1,154.5,210.1z M460,210.1c7.8,0,13.9,6,13.9,13.9v64.6c0,7.8-6,13.9-13.9,13.9s-13.9-6-13.9-13.9v-64.6
		C446.1,216.1,452.1,210.1,460,210.1z M57,357.9c-2.4,0.1-4.6,1-6.3,2.7L23,388.3c-3.6,3.6-3.6,9.5,0,13.1s9.5,3.6,13.1,0L48,389.4
		v79.3H29.5c-5.1-0.1-9.3,4-9.4,9.1c-0.1,5.1,4,9.3,9.1,9.4c0.1,0,0.2,0,0.3,0h26.2c1,0.2,2,0.2,3,0h17c5.1,0.1,9.3-4,9.4-9.1
		c0.1-5.1-4-9.3-9.1-9.4c-0.1,0-0.2,0-0.3,0h-9.2V367.1c0-5.1-4.1-9.2-9.2-9.2C57.1,357.9,57.1,357.9,57,357.9z M158.8,357.9
		c-2.4,0.1-4.6,1-6.3,2.7l-27.7,27.7c-3.6,3.6-3.6,9.5,0,13.1s9.5,3.6,13.1,0l11.9-11.9v79.3h-18.5c-5.1-0.1-9.3,4-9.4,9.1
		s4,9.3,9.1,9.4c0.1,0,0.2,0,0.3,0h26.2c1,0.2,2,0.2,3,0h17c5.1,0.1,9.3-4,9.4-9.1c0.1-5.1-4-9.3-9.1-9.4c-0.1,0-0.2,0-0.3,0h-9.2
		V367.1c0-5.1-4.1-9.2-9.2-9.2C159,357.9,158.9,357.9,158.8,357.9z M260.6,357.9c-2.4,0.1-4.6,1-6.3,2.7l-27.7,27.7
		c-3.6,3.6-3.7,9.4-0.2,13.1c3.6,3.6,9.4,3.7,13.1,0.2c0.1,0,0.1-0.1,0.2-0.2l11.9-11.9v79.3h-18.5c-5.1-0.1-9.3,4-9.4,9.1
		s4,9.3,9.1,9.4c0.1,0,0.2,0,0.3,0h26.2c1,0.2,2,0.2,3,0h17c5.1,0.1,9.3-4,9.4-9.1c0.1-5.1-4-9.3-9.1-9.4c-0.1,0-0.2,0-0.3,0h-9.2
		V367.1c0-5.1-4.1-9.2-9.2-9.2C260.8,357.9,260.7,357.9,260.6,357.9z M362.5,357.9c-2.4,0.1-4.6,1-6.3,2.7l-27.7,27.7
		c-3.6,3.6-3.7,9.4-0.2,13.1c3.6,3.6,9.4,3.7,13.1,0.2c0.1,0,0.1-0.1,0.2-0.2l11.9-11.9v79.3H335c-5.1-0.1-9.3,4-9.4,9.1
		s4,9.3,9.1,9.4c0.1,0,0.2,0,0.3,0h26.2c1,0.2,2,0.2,3,0h17c5.1,0.1,9.3-4,9.4-9.1s-4-9.3-9.1-9.4c-0.1,0-0.2,0-0.3,0H372V367.1
		c0-5.1-4.1-9.2-9.2-9.2C362.7,357.9,362.6,357.9,362.5,357.9z M460,357.9c-17.7,0-32.3,14.6-32.3,32.3v64.6
		c0,17.7,14.6,32.3,32.3,32.3s32.3-14.6,32.3-32.3v-64.6C492.3,372.5,477.7,357.9,460,357.9z M460,376.4c7.8,0,13.9,6,13.9,13.9
		v64.6c0,7.8-6,13.9-13.9,13.9s-13.9-6-13.9-13.9v-64.6C446.1,382.4,452.1,376.4,460,376.4z"/>
</g>
</svg>
