<?xml version="1.0" encoding="UTF-8" standalone="no"?>
<svg width="26px" height="23px" viewBox="0 0 26 23" version="1.1" xmlns="http://www.w3.org/2000/svg" xmlns:xlink="http://www.w3.org/1999/xlink" xmlns:sketch="http://www.bohemiancoding.com/sketch/ns">
    <!-- Generator: Sketch 3.5.2 (25235) - http://www.bohemiancoding.com/sketch -->
    <title>comment</title>
    <desc>Created with Sketch.</desc>
    <defs></defs>
    <g id="Page-1" stroke="none" stroke-width="1" fill="none" fill-rule="evenodd" sketch:type="MSPage">
        <g id="Artboard-1" sketch:type="MSArtboardGroup" transform="translate(-143.000000, -119.000000)" stroke="#8A9499" stroke-width="1.5">
            <path d="M168,128.75 C168,123.910156 162.629464,120 156,120 C149.370536,120 144,123.910156 144,128.75 C144,131.525391 145.767857,134 148.526786,135.599609 C147.897321,137.882812 146.933036,138.703125 146.089286,139.673828 C145.888393,139.919922 145.660714,140.125 145.727679,140.466797 C145.727679,140.466797 145.727679,140.466797 145.727679,140.480469 C145.794643,140.78125 146.035714,141 146.303571,141 L146.370536,141 C146.892857,140.931641 147.415179,140.835938 147.897321,140.699219 C150.214286,140.097656 152.303571,138.976562 154.058036,137.390625 C154.6875,137.458984 155.34375,137.5 156,137.5 C162.629464,137.5 168,133.589844 168,128.75 L168,128.75 Z" id="comment" sketch:type="MSShapeGroup"></path>
        </g>
    </g>
</svg>