<?xml version="1.0" encoding="UTF-8" standalone="no"?>
<svg width="26px" height="23px" viewBox="0 0 26 23" version="1.1" xmlns="http://www.w3.org/2000/svg" xmlns:xlink="http://www.w3.org/1999/xlink" xmlns:sketch="http://www.bohemiancoding.com/sketch/ns">
    <!-- Generator: Sketch 3.5.2 (25235) - http://www.bohemiancoding.com/sketch -->
    <title>heart--active</title>
    <desc>Created with Sketch.</desc>
    <defs></defs>
    <g id="Page-1" stroke="none" stroke-width="1" fill="none" fill-rule="evenodd" sketch:type="MSPage">
        <g id="Artboard-1" sketch:type="MSArtboardGroup" transform="translate(-174.000000, -119.000000)" stroke="#FF9B46" stroke-width="1.5">
            <path d="M199,126.398438 C199,122.392578 196.602679,120 192.598214,120 C190.254464,120 188.058036,121.886719 187,122.953125 C185.941964,121.886719 183.745536,120 181.401786,120 C177.397321,120 175,122.392578 175,126.398438 C175,129.679688 177.946429,132.427734 178.053571,132.523438 L186.410714,140.753906 C186.571429,140.917969 186.785714,141 187,141 C187.214286,141 187.428571,140.917969 187.589286,140.753906 L195.933036,132.550781 C196.053571,132.427734 199,129.679688 199,126.398438 L199,126.398438 Z" id="heart--active" sketch:type="MSShapeGroup"></path>
        </g>
    </g>
</svg>