<?xml version="1.0" encoding="UTF-8" standalone="no"?>
<svg width="26px" height="23px" viewBox="0 0 26 23" version="1.1" xmlns="http://www.w3.org/2000/svg" xmlns:xlink="http://www.w3.org/1999/xlink" xmlns:sketch="http://www.bohemiancoding.com/sketch/ns">
    <!-- Generator: Sketch 3.5.2 (25235) - http://www.bohemiancoding.com/sketch -->
    <title>heart</title>
    <desc>Created with Sketch.</desc>
    <defs></defs>
    <g id="Page-1" stroke="none" stroke-width="1" fill="none" fill-rule="evenodd" sketch:type="MSPage">
        <g id="Artboard-1" sketch:type="MSArtboardGroup" transform="translate(-64.000000, -119.000000)" stroke="#8A9499" stroke-width="1.5">
            <path d="M89,126.398438 C89,122.392578 86.6026786,120 82.5982143,120 C80.2544643,120 78.0580357,121.886719 77,122.953125 C75.9419643,121.886719 73.7455357,120 71.4017857,120 C67.3973214,120 65,122.392578 65,126.398438 C65,129.679688 67.9464286,132.427734 68.0535714,132.523438 L76.4107143,140.753906 C76.5714286,140.917969 76.7857143,141 77,141 C77.2142857,141 77.4285714,140.917969 77.5892857,140.753906 L85.9330357,132.550781 C86.0535714,132.427734 89,129.679688 89,126.398438 L89,126.398438 Z" id="heart" sketch:type="MSShapeGroup"></path>
        </g>
    </g>
</svg>