<?xml version="1.0" encoding="UTF-8" standalone="no"?>
<svg width="24px" height="21px" viewBox="0 0 24 21" version="1.1" xmlns="http://www.w3.org/2000/svg" xmlns:xlink="http://www.w3.org/1999/xlink" xmlns:sketch="http://www.bohemiancoding.com/sketch/ns">
    <!-- Generator: Sketch 3.5.2 (25235) - http://www.bohemiancoding.com/sketch -->
    <title>heart--inverse</title>
    <desc>Created with Sketch.</desc>
    <defs></defs>
    <g id="Page-1" stroke="none" stroke-width="1" fill="none" fill-rule="evenodd" sketch:type="MSPage">
        <g id="Artboard-1" sketch:type="MSArtboardGroup" transform="translate(-65.000000, -161.000000)" fill="#FFFFFF">
            <path d="M89,167.398438 C89,163.392578 86.6026786,161 82.5982143,161 C80.2544643,161 78.0580357,162.886719 77,163.953125 C75.9419643,162.886719 73.7455357,161 71.4017857,161 C67.3973214,161 65,163.392578 65,167.398438 C65,170.679688 67.9464286,173.427734 68.0535714,173.523438 L76.4107143,181.753906 C76.5714286,181.917969 76.7857143,182 77,182 C77.2142857,182 77.4285714,181.917969 77.5892857,181.753906 L85.9330357,173.550781 C86.0535714,173.427734 89,170.679688 89,167.398438 L89,167.398438 Z" id="heart--inverse" sketch:type="MSShapeGroup"></path>
        </g>
    </g>
</svg>