<?xml version="1.0" encoding="UTF-8" standalone="no"?>
<svg width="24px" height="21px" viewBox="0 0 24 21" version="1.1" xmlns="http://www.w3.org/2000/svg" xmlns:xlink="http://www.w3.org/1999/xlink" xmlns:sketch="http://www.bohemiancoding.com/sketch/ns">
    <!-- Generator: Sketch 3.5.2 (25235) - http://www.bohemiancoding.com/sketch -->
    <title>heart--inverse--active</title>
    <desc>Created with Sketch.</desc>
    <defs></defs>
    <g id="Page-1" stroke="none" stroke-width="1" fill="none" fill-rule="evenodd" sketch:type="MSPage">
        <g id="Artboard-1" sketch:type="MSArtboardGroup" transform="translate(-175.000000, -161.000000)" fill="#FF9B46">
            <path d="M199,167.398438 C199,163.392578 196.602679,161 192.598214,161 C190.254464,161 188.058036,162.886719 187,163.953125 C185.941964,162.886719 183.745536,161 181.401786,161 C177.397321,161 175,163.392578 175,167.398438 C175,170.679688 177.946429,173.427734 178.053571,173.523438 L186.410714,181.753906 C186.571429,181.917969 186.785714,182 187,182 C187.214286,182 187.428571,181.917969 187.589286,181.753906 L195.933036,173.550781 C196.053571,173.427734 199,170.679688 199,167.398438 L199,167.398438 Z" id="heart--inverse--active" sketch:type="MSShapeGroup"></path>
        </g>
    </g>
</svg>