<svg xmlns="http://www.w3.org/2000/svg" width="81" height="157"><title>icon</title><desc>Created with Sketch.</desc><g fill="none"><g><g><path fill="#FFC246" d="M13.72 145.37h54.44l-12-34.72H25.73l-12 34.7"/><path fill="#3C5CAB" d="M9.2 148.42l23.87-70.1V62.48h16.2v15.8l23.68 70.13H9.2M57.4 78.3V62.5h2.54c2.73 0 4.94-2.15 4.94-4.88 0-2.72-2.2-4.86-4.94-4.86h-38c-2.73 0-4.94 2.14-4.94 4.86 0 2.73 2.2 4.87 4.94 4.87h3.02v15.8L.64 148.18v.25c0 2.63 1.7 4.7 3.48 6.1 1.8 1.43 4.4 2 6.83 2h59.98c2.43 0 4.45-.57 6.25-2 1.8-1.4 2.9-3.48 2.9-6.1v-.26L57.4 78.3"/></g><path fill="#3C5CAB" d="M38.6 4.02v3.36c.46 0 .86.2 1.17.5.3.3.5.7.5 1.18 0 .47-.2.87-.5 1.18-.3.3-.7.5-1.18.5s-.88-.2-1.2-.5c-.3-.3-.48-.7-.5-1.18.02-.48.2-.87.5-1.2.32-.3.72-.48 1.2-.48V.68c-2.32-.02-4.44.93-5.95 2.44-1.5 1.5-2.45 3.63-2.45 5.94 0 2.3.94 4.42 2.46 5.93 1.5 1.5 3.62 2.45 5.93 2.45 2.3 0 4.4-.95 5.92-2.46 1.5-1.52 2.46-3.64 2.46-5.94 0-2.3-.95-4.43-2.46-5.94C43.02 1.62 40.9.66 38.6.67v3.35"/><path fill="#FF9B46" d="M29.88 48.52v3.35c4.23 0 8.1-1.72 10.86-4.5 2.77-2.77 4.5-6.63 4.5-10.86 0-4.22-1.73-8.08-4.5-10.85-2.77-2.77-6.63-4.5-10.86-4.5-4.23 0-8.1 1.73-10.86 4.5-2.78 2.77-4.5 6.63-4.5 10.86 0 4.24 1.72 8.1 4.5 10.87 2.77 2.78 6.63 4.5 10.86 4.5v-6.7c-2.4-.02-4.54-.98-6.1-2.55-1.58-1.57-2.54-3.7-2.55-6.1 0-2.4.97-4.55 2.54-6.12 1.57-1.57 3.7-2.53 6.1-2.53 2.4 0 4.54.96 6.12 2.53 1.56 1.58 2.52 3.72 2.52 6.1 0 2.4-.96 4.55-2.53 6.12-1.6 1.58-3.73 2.54-6.12 2.54v3.36"/><path fill="#2B959A" d="M60.04 15.35v3.36c1.22 0 2.3.5 3.1 1.3.8.8 1.28 1.87 1.3 3.1-.02 1.2-.5 2.3-1.3 3.1-.8.8-1.88 1.27-3.1 1.27-1.22 0-2.3-.48-3.1-1.28-.8-.8-1.28-1.9-1.28-3.1 0-1.23.5-2.3 1.3-3.1.8-.8 1.86-1.3 3.08-1.3V12c-3.05 0-5.85 1.24-7.84 3.24-2 2-3.26 4.8-3.26 7.85 0 3.04 1.25 5.84 3.26 7.84 2 2 4.8 3.25 7.84 3.25 3.06 0 5.85-1.26 7.85-3.26 2-2 3.24-4.8 3.24-7.85 0-3.07-1.25-5.86-3.25-7.86S63.1 12 60.03 12v3.35"/></g></g></svg>