<svg xmlns="http://www.w3.org/2000/svg" width="920" height="475" xmlns:xlink="http://www.w3.org/1999/xlink"><title>lab</title><desc>Created with Sketch.</desc><defs><path id="a" d="M92.75 9.87c0-5.15-4.17-9.32-9.32-9.32H10.3C5.17.55 1 4.72 1 9.87v43.7c0 5.15 4.17 9.33 9.3 9.33h73.13c5.15 0 9.32-4.18 9.32-9.33V9.87"/><path id="c" d="M.53.74h19.5v39.63H.53V.74z"/><path id="e" d="M.1.74h19.48v39.63H.1V.74z"/><path id="g" d="M.54.66h43V55h-43V.66z"/></defs><g fill="none"><path fill="#3C5CAB" d="M308.72 463.37h54.44l-12-34.72h-30.43l-12 34.72"/><path fill="#2B959A" d="M304.2 466.42l23.87-70.1V380.5h16.2v15.8l23.68 70.12H304.2m48.2-70.12v-15.8h2.54c2.73 0 4.94-2.15 4.94-4.88 0-2.72-2.2-4.86-4.94-4.86h-38c-2.73 0-4.94 2.14-4.94 4.86 0 2.73 2.2 4.87 4.94 4.87h3.02v15.8l-24.32 69.86v.25c0 2.64 1.7 4.7 3.48 6.1 1.8 1.44 4.4 2 6.83 2h59.98c2.43 0 4.45-.56 6.25-2 1.8-1.4 2.9-3.46 2.9-6.1v-.25l-22.7-69.85"/><path fill="#3C5CAB" d="M328.6 312.02v3.36c.46 0 .86.18 1.17.5.3.3.5.7.5 1.18 0 .47-.2.87-.5 1.18-.3.3-.7.5-1.18.5s-.9-.2-1.2-.5c-.3-.3-.5-.7-.5-1.18s.2-.87.5-1.2c.3-.3.7-.48 1.2-.48v-6.7c-2.33-.02-4.45.93-5.95 2.44-1.52 1.5-2.46 3.63-2.46 5.94 0 2.3.93 4.42 2.45 5.93 1.5 1.5 3.62 2.44 5.93 2.44 2.3 0 4.4-.95 5.92-2.46 1.5-1.52 2.46-3.64 2.46-5.94 0-2.3-.95-4.43-2.46-5.94-1.5-1.5-3.62-2.46-5.93-2.45V312M325.88 363.52v3.35c4.23 0 8.1-1.72 10.86-4.5 2.77-2.76 4.5-6.63 4.5-10.86 0-4.2-1.73-8.07-4.5-10.84-2.77-2.77-6.63-4.5-10.86-4.5-4.23 0-8.1 1.73-10.86 4.5-2.78 2.77-4.5 6.63-4.5 10.86 0 4.24 1.72 8.1 4.5 10.87 2.77 2.77 6.63 4.5 10.86 4.5v-6.7c-2.4 0-4.54-.98-6.1-2.55-1.58-1.58-2.54-3.72-2.54-6.12 0-2.38.96-4.52 2.53-6.1 1.57-1.57 3.7-2.53 6.1-2.53 2.4 0 4.54.96 6.12 2.53 1.55 1.58 2.5 3.72 2.5 6.1 0 2.4-.95 4.55-2.52 6.12-1.6 1.58-3.73 2.54-6.12 2.54v3.35M351.04 326.35v3.36c1.22 0 2.3.5 3.1 1.3.8.8 1.28 1.88 1.3 3.1-.02 1.2-.5 2.3-1.3 3.1-.8.8-1.88 1.28-3.1 1.28-1.22 0-2.3-.48-3.1-1.28-.8-.8-1.28-1.9-1.28-3.1 0-1.23.5-2.3 1.28-3.1.8-.8 1.88-1.3 3.1-1.3V323c-3.05 0-5.85 1.24-7.85 3.24s-3.27 4.8-3.26 7.85c0 3.03 1.24 5.83 3.25 7.83 2 2 4.8 3.25 7.83 3.25 3.06 0 5.85-1.26 7.85-3.26 2-2 3.25-4.8 3.24-7.85 0-3.07-1.25-5.86-3.25-7.86s-4.8-3.24-7.86-3.24v3.35"/><path fill="#FFC246" d="M811.42 456.74h88.8l-19.58-56.63H831l-19.58 56.65"/><path fill="#2B959A" d="M804.07 461.72l38.9-114.36v-25.8h26.46v25.8l38.6 114.38-103.96-.02m78.58-114.36v-25.8h4.17c4.45 0 8.06-3.5 8.06-7.95 0-4.43-3.6-7.9-8.06-7.9h-62c-4.45 0-8.05 3.47-8.05 7.92 0 4.47 3.6 7.95 8.05 7.95h4.94v25.8L790.1 461.32v.42c0 4.28 2.75 7.68 5.66 9.95 2.96 2.32 7.17 3.26 11.15 3.26h97.86c3.96 0 7.25-.94 10.2-3.27 2.9-2.28 4.74-5.68 4.74-9.96v-.42l-37.05-113.94"/><path fill="#FF9B46" d="M540.02 289.4v4.7c1.66 0 3.13.67 4.23 1.77 1.1 1.1 1.75 2.57 1.76 4.23 0 1.66-.65 3.13-1.74 4.23-1.1 1.1-2.57 1.75-4.23 1.75-1.66 0-3.13-.66-4.23-1.75-1.1-1.1-1.77-2.57-1.77-4.23 0-1.66.66-3.13 1.76-4.23 1.1-1.1 2.55-1.76 4.2-1.76v-9.4c-4.23 0-8.1 1.75-10.87 4.53-2.78 2.77-4.52 6.64-4.52 10.88 0 4.24 1.75 8.1 4.53 10.9 2.77 2.76 6.64 4.5 10.88 4.5 4.25 0 8.1-1.73 10.9-4.5 2.77-2.78 4.5-6.66 4.5-10.9 0-4.23-1.73-8.1-4.5-10.87-2.78-2.78-6.65-4.52-10.9-4.5v4.7zm0 27.6v4.7c5.95 0 11.37-2.43 15.27-6.33 3.9-3.9 6.3-9.32 6.3-15.27 0-5.94-2.42-11.37-6.33-15.26-3.9-3.9-9.3-6.34-15.26-6.34-5.94 0-11.36 2.43-15.26 6.34-3.9 3.9-6.33 9.32-6.33 15.26 0 5.95 2.44 11.37 6.34 15.27 3.9 3.9 9.32 6.33 15.27 6.33v-9.4c-3.36 0-6.4-1.36-8.6-3.58-2.23-2.23-3.6-5.25-3.6-8.62 0-3.37 1.37-6.4 3.6-8.62 2.22-2.2 5.24-3.57 8.6-3.57 3.38 0 6.4 1.38 8.63 3.6 2.2 2.22 3.57 5.24 3.57 8.6 0 3.38-1.35 6.4-3.57 8.63-2.22 2.22-5.24 3.57-8.6 3.57v4.7z"/><path fill="#2B959A" d="M583.3 348.14c1.22 0 2.22 1 2.22 2.23 0 1.22-1 2.22-2.22 2.22h-6.48l2.3-4.47h4.18m-7.73 10.97V440c-1.74 1.14-3.6 2.17-5.88 2.76-5.17 1.3-11.3-1.93-16.13-3.87-4.2-1.63-6.76-3.24-10.63 0-2.58 2.56-2.9 7.07-6.45 9-2.2 1.1-6.03.84-9.28.16l46.37-89.27h2c0 .1-.04.2-.04.3m-54.32 87c-4.35-2.2-5.48-6.16-8.6-10.1-9.33-10.97-12.23 6.43-17.06 11.26-2.66 2.48-7.17 2.84-11.85 2.6v-18.03h10.96c1.7 0 3.1-1.4 3.1-3.1 0-1.7-1.4-3.1-3.1-3.1h-10.96v-7.87h25.45c1.7 0 3.1-1.4 3.1-3.1 0-1.72-1.4-3.1-3.1-3.1h-25.46v-7.88h10.96c1.72 0 3.1-1.4 3.1-3.1 0-1.73-1.38-3.12-3.1-3.12h-10.95v-7.87h25.45c1.7 0 3.1-1.38 3.1-3.1 0-1.7-1.4-3.1-3.1-3.1h-25.45v-7.87h10.96c1.73 0 3.1-1.4 3.1-3.1 0-1.72-1.37-3.1-3.1-3.1h-10.94V358.8h82.85l-45.34 87.32m-45.82-97.98h96.7l-2.3 4.45H480.3l-4.86-4.47m125.33-48.38c-1.52-.8-3.4-.2-4.18 1.32l-21.24 40.86h-107.9c-1.27 0-2.42.78-2.9 1.98-.45 1.2-.14 2.55.8 3.4l11.6 10.67c.18.15.38.25.58.36V458.7c0 8.73 7.1 15.8 15.8 15.8h72.64c8.7 0 15.8-7.07 15.8-15.8v-99.6c0-.1-.02-.2-.03-.3h1.54c4.64 0 8.4-3.8 8.4-8.44s-3.77-8.43-8.42-8.43h-.95l19.73-38c.8-1.52.2-3.4-1.32-4.18"/><g transform="translate(483 406)"><mask id="b"><use xlink:href="#a"/></mask><path fill="#FF9B46" d="M92.75 34c-1.74 1.14-3.6 2.17-5.88 2.76-5.15 1.3-11.28-1.93-16.1-3.87-4.2-1.63-6.77-3.24-10.64 0-2.58 2.56-2.9 7.07-6.45 9-2.2 1.1-6.02.84-9.27.16 0 0-6.8-.66-9.8-5.14-1.65-2.04-2.8-4.48-4.75-6.94-9.34-10.96-12.24 6.44-17.07 11.27-2.65 2.48-7.16 2.84-11.84 2.6V33.2l-6.2-.05V52.7c0 8.72 7.08 15.8 15.8 15.8h72.63c8.7 0 15.8-7.08 15.8-15.8V27.3l-6.2-.64v7.3" mask="url(#b)"/></g><path fill="#FFC246" d="M431.3 254.1v2.38c.9 0 1.7.36 2.3.95.58.6.93 1.38.93 2.27 0 .9-.35 1.7-.94 2.3-.6.57-1.4.93-2.3.93-.9 0-1.7-.36-2.28-.94-.6-.6-.94-1.4-.94-2.3 0-.9.34-1.7.93-2.28.6-.6 1.4-.95 2.3-.95v-4.75c-4.4 0-7.98 3.57-7.98 7.97s3.57 7.97 7.98 7.97c4.42 0 8-3.57 8-7.98 0-4.4-3.58-7.98-8-7.98v2.37M431.3 274.27v2.38c.9 0 1.7.35 2.3.94.58.57.93 1.36.94 2.26 0 .9-.36 1.7-.95 2.28-.6.6-1.4.95-2.3.95-.9 0-1.7-.37-2.28-.96-.6-.6-.94-1.38-.94-2.28 0-.9.34-1.7.93-2.28.6-.6 1.4-.95 2.3-.95v-4.76c-4.4 0-7.98 3.57-7.98 7.97s3.57 7.98 7.98 7.98c4.42 0 8-3.57 8-7.98 0-4.4-3.58-7.97-8-7.98v2.37M424.6 294.44v2.37c1.2 0 2.27.5 3.06 1.3.8.8 1.27 1.86 1.28 3.07 0 1.2-.5 2.27-1.28 3.07-.8.8-1.86 1.27-3.07 1.27-1.23 0-2.3-.47-3.1-1.26-.8-.8-1.26-1.87-1.27-3.07 0-1.2.5-2.28 1.28-3.08.8-.8 1.87-1.28 3.08-1.28v-4.74c-5.04 0-9.1 4.07-9.1 9.1 0 5.02 4.06 9.1 9.1 9.1 5 0 9.1-4.08 9.1-9.1 0-5.03-4.08-9.1-9.1-9.1v2.37M403.1 286.6v2.37c1.2 0 2.27.48 3.07 1.27.8.8 1.27 1.87 1.27 3.08 0 1.2-.48 2.28-1.27 3.07-.8.77-1.87 1.25-3.08 1.25-1.2 0-2.3-.48-3.1-1.27-.8-.8-1.26-1.87-1.26-3.08 0-1.2.48-2.28 1.27-3.08.8-.8 1.88-1.27 3.08-1.27v-4.75c-5.03 0-9.1 4.07-9.1 9.1 0 5.02 4.07 9.1 9.1 9.1 5.02 0 9.1-4.08 9.1-9.1 0-5.03-4.08-9.1-9.1-9.1v2.37M414.5 259.7v2.38c2.14 0 4.05.86 5.46 2.26 1.4 1.4 2.25 3.3 2.25 5.45 0 2.1-.84 4.02-2.23 5.43-1.4 1.4-3.32 2.25-5.45 2.26-2.13 0-4.04-.87-5.44-2.27-1.4-1.4-2.26-3.32-2.26-5.45 0-2.15.86-4.06 2.26-5.46 1.4-1.4 3.3-2.26 5.45-2.26v-4.75c-6.88 0-12.45 5.6-12.45 12.47 0 6.87 5.57 12.45 12.46 12.45 6.9 0 12.46-5.58 12.47-12.46 0-6.9-5.57-12.47-12.45-12.47v2.36"/><path fill="#2B959A" d="M446.8 468.23l-3.08-95.3V323.4l2.76-5.56h-8.4l-1.2 3.78.7 52.6 2.7 87.85c.37 4.1-5.5 3.65-9.62 3.65h-9.34s-10.74.14-12.7.06c-3.92-.16-5.22.5-4.76-8 .38-6.92.23-26.5 1.56-83.65l-.63-52.65-1.14-3.64h-7.5l2.75 5.55v49.53s-.95 89.7-.93 95.2c.02 7.46 6.35 6.54 6.35 6.54H440c1.77 0 6.8.05 6.8-6.45"/><path fill="#FFC246" d="M408.65 385.37h26.1l-.4-22.14H408.8l-.15 22.14M435.47 423.64l-.68-36.72v1.6H408.6l-.23 35.12h27.06M434.3 360.06l-.52-27.54H409l-.18 27.54h25.47M408.38 426.8l-.22 34.4h28l-.63-34.4h-27.15"/><path fill="#FF9B46" d="M185.04 319.3v2.4c1.13 0 2.14.45 2.9 1.2.74.74 1.2 1.75 1.2 2.9 0 1.13-.46 2.14-1.2 2.9-.76.74-1.77 1.2-2.9 1.2-1.14 0-2.15-.47-2.9-1.2-.74-.76-1.2-1.77-1.2-2.9 0-1.15.46-2.16 1.2-2.9.75-.75 1.76-1.2 2.9-1.2v-4.76c-4.9 0-8.85 3.96-8.85 8.85 0 4.87 3.94 8.83 8.83 8.83 4.9 0 8.84-3.96 8.84-8.85 0-4.9-3.95-8.86-8.84-8.86v2.38"/><path fill="#FFC246" d="M265.17 347.6v2.38c.98 0 1.84.4 2.5 1.03.63.66 1.02 1.53 1.02 2.5s-.4 1.85-1.05 2.5c-.65.64-1.5 1-2.5 1.03-.97 0-1.83-.4-2.48-1.03-.64-.66-1.03-1.52-1.03-2.5s.4-1.85 1.03-2.5c.65-.63 1.5-1.02 2.5-1.02v-4.76c-4.58 0-8.28 3.7-8.28 8.28 0 4.57 3.7 8.27 8.26 8.27 4.57 0 8.27-3.7 8.27-8.27 0-4.57-3.7-8.27-8.27-8.27v2.37"/><path fill="#FF9B46" d="M194.4 345.7v2.4c.72 0 1.33.27 1.8.73.46.46.74 1.08.74 1.8 0 .7-.28 1.3-.74 1.78-.47.48-1.08.76-1.8.76-.7 0-1.3-.28-1.78-.74-.46-.46-.74-1.07-.74-1.78 0-.7.28-1.33.75-1.8.46-.45 1.08-.73 1.78-.73v-4.76c-2 0-3.82.82-5.13 2.14-1.3 1.3-2.13 3.15-2.13 5.15 0 4.02 3.26 7.28 7.28 7.28 4.03 0 7.3-3.25 7.3-7.27s-3.26-7.28-7.3-7.3v2.4M190.27 379.7v2.38c.46 0 .86.18 1.16.48.3.3.5.7.5 1.17 0 .46-.2.86-.5 1.16-.3.3-.7.47-1.16.47-.47 0-.87-.18-1.17-.48-.3-.3-.48-.7-.5-1.18.02-.47.2-.86.5-1.17.3-.3.7-.48 1.17-.48v-4.76c-3.54 0-6.4 2.88-6.4 6.4 0 3.56 2.86 6.4 6.4 6.4 3.53 0 6.4-2.84 6.4-6.4 0-3.52-2.86-6.4-6.4-6.4v2.4"/><path fill="#3C5CAB" d="M230.1 356.5v2.37c.46 0 .86.18 1.16.48.3.3.5.7.5 1.17 0 .46-.2.86-.5 1.17-.3.3-.7.46-1.16.46-.47 0-.87-.18-1.17-.48-.3-.32-.5-.72-.5-1.18 0-.46.2-.86.5-1.17.3-.3.7-.48 1.17-.48v-4.76c-1.77 0-3.38.72-4.53 1.9-1.16 1.13-1.88 2.75-1.88 4.5 0 1.77.7 3.4 1.86 4.54 1.15 1.15 2.76 1.88 4.53 1.88 1.75 0 3.36-.73 4.52-1.88 1.15-1.15 1.87-2.77 1.87-4.53 0-3.53-2.88-6.4-6.4-6.4v2.38"/><path fill="#FFC246" d="M266.2 404.23v2.37c.46 0 .86.18 1.16.48.3.3.5.7.5 1.17s-.2.87-.5 1.17c-.3.3-.7.48-1.17.5-.48-.02-.88-.2-1.18-.5-.3-.3-.5-.7-.5-1.17 0-.46.2-.86.5-1.16.3-.33.7-.5 1.16-.5v-4.76c-3.55 0-6.4 2.87-6.4 6.4 0 3.54 2.85 6.4 6.4 6.4 3.53 0 6.4-2.86 6.4-6.4 0-3.53-2.87-6.4-6.4-6.4v2.38"/><path fill="#3C5CAB" d="M234.2 390.17c-1.14-.1-2.68.04-4.68.04l-1.6.5c-3.88 0-7.9-1.4-7.9 3.2v52.56c0 4.63 2.63 12.44 7.26 12.44l2.34-1.17c1.88 0 3.42 2.63 4.57-1.45v-66.1"/><path fill="#FF9B46" d="M198.1 399.36c-1.14-.1-2.68.03-4.68.03l-1.6.4c-3.87 0-7.9-1.2-7.9 2.73v44.75c0 3.94 2.64 10.6 7.27 10.6l2.32-1c1.88 0 3.4 2.24 4.56-1.23v-56.3"/><path fill="#FFC246" d="M272.87 413.64c-1.14-.07-2.67.02-4.68.02l-1.63.3c-3.86 0-7.9-.9-7.9 2.1v33.82c0 2.98 2.65 8.02 7.28 8.02l2.34-.76c1.87 0 3.4 1.7 4.56-.93v-42.55"/><path fill="#2B959A" d="M199.32 449.64h-1.5c0 1.9-.77 3.62-2.02 4.87s-2.96 2.03-4.86 2.03c-1.9 0-3.62-.77-4.86-2-1.25-1.26-2.02-2.97-2.02-4.88v-81.6l-3.64-2.13-.76 1.3h1.5-.25l.24.12.03-.1h-.25l.23.1-.23-.12.2.16.03-.04-.23-.12.2.16-.1-.07.1.08-.1-.08.1.07c.04-.04.2-.13.45-.22.38-.12.98-.23 1.7-.3.7-.05 1.52-.08 2.4-.08 1.68 0 3.54.1 5.2.1 1.65 0 3.4-.1 4.97-.1 1.5 0 2.83.1 3.6.3.37.12.58.25.6.28l.12-.1-.14.06.03.07.1-.1-.13.05.15-.05-.16.03v.03l.16-.05-.16.03h.02-.05 1.5l-1.03-1.1-2.65 2.48v81h3v-79.7l2.17-2v-.66c0-.4-.1-.83-.25-1.2-.3-.66-.82-1.13-1.35-1.43-.8-.45-1.66-.64-2.6-.76-.93-.1-1.94-.14-2.98-.14-1.68 0-3.43.08-4.97.08-1.57 0-3.44-.1-5.22-.1-1.64.02-3.2.07-4.55.4-.67.18-1.32.42-1.9.9-.3.24-.55.55-.74.93-.2.37-.27.8-.27 1.2v.88l2.9 1.7v79.87c0 5.46 4.42 9.88 9.88 9.88 5.47 0 9.9-4.42 9.9-9.88h-1.5M235.4 449.64h-1.5c0 1.9-.75 3.62-2 4.87s-2.96 2.03-4.87 2.03c-1.9 0-3.6-.77-4.86-2-1.25-1.26-2.02-2.97-2.02-4.88v-81.6l-3.64-2.13-.74 1.3h1.5-.25l.23.12.03-.1H217l.22.1-.23-.12.2.16v-.04l-.22-.12.2.16-.1-.07.1.08-.1-.08.1.07c.04-.04.2-.13.44-.2.38-.14.98-.25 1.7-.3.7-.07 1.52-.1 2.4-.1 1.68 0 3.54.1 5.2.1 1.65 0 3.4-.1 4.97-.1 1.5 0 2.84.1 3.6.3.4.12.6.25.6.28l.13-.1-.14.06.02.07.1-.1-.13.05.13-.05-.15.03v.03l.14-.05-.15.03h.02-.04.02-.03 1.5l-1.03-1.1-2.66 2.48v81h3v-79.7l2.2-2v-.66c0-.4-.1-.83-.26-1.2-.3-.66-.8-1.13-1.34-1.43-.8-.45-1.66-.63-2.6-.76-.93-.1-1.94-.14-3-.14-1.65 0-3.4.08-4.95.08-1.56 0-3.42-.1-5.2-.1-1.66.02-3.23.08-4.57.4-.67.2-1.3.42-1.9.9-.28.24-.55.55-.74.93-.2.37-.3.8-.3 1.2v.88l2.9 1.7v79.87c0 5.46 4.44 9.88 9.9 9.88 5.45 0 9.87-4.42 9.87-9.88h-1.5M274.1 449.64h-1.5c0 1.9-.78 3.62-2.02 4.87-1.25 1.26-2.96 2.03-4.87 2.03-1.9 0-3.6-.77-4.84-2-1.25-1.26-2.02-2.97-2.02-4.88v-81.6l-3.64-2.13-.77 1.3h1.5-.25l.22.12.03-.1h-.25l.22.1-.23-.12.2.16.03-.04-.23-.12.2.16-.1-.07.1.08-.1-.08.1.07c.04-.04.2-.13.45-.22.38-.12.98-.23 1.7-.3.7-.05 1.52-.08 2.4-.08 1.68 0 3.54.1 5.2.1 1.65 0 3.4-.1 4.97-.1 1.47 0 2.8.1 3.57.3.4.12.6.25.62.28l.1-.1-.13.06.02.07.1-.1-.13.05.14-.05-.14.03v.03l.15-.05-.14.03h.02-.03.02-.03 1.5l-1.02-1.1-2.66 2.48v81h3v-79.7l2.17-2v-.66c0-.4-.08-.83-.25-1.2-.3-.66-.82-1.13-1.34-1.43-.8-.45-1.66-.64-2.6-.76-.93-.1-1.94-.14-3-.14-1.65 0-3.4.08-4.95.08-1.58 0-3.44-.1-5.2-.1-1.68.02-3.25.07-4.6.4-.66.18-1.3.42-1.9.9-.27.24-.54.55-.73.93-.18.37-.27.8-.27 1.2v.88l2.9 1.7v79.87c0 5.46 4.43 9.88 9.88 9.88 5.47 0 9.9-4.42 9.9-9.88h-1.5"/><path fill="#2B959A" d="M157.77 373.13h15.65v101.1h-15.65v-101.1zM162.67 458.6h113.97v15.64H162.67V458.6zM71.66 334.95c-31.9 0-57.83-25.94-57.83-57.83 0-25.32 16.54-47.62 40.53-55.13v-65.84l-6.23-12.53 6.16-3.07 6.93 13.98v72.68l-2.56.67C36.3 233.8 20.7 254 20.7 277.1c0 28.1 22.86 50.95 50.96 50.95s50.94-22.85 50.94-50.94c0-23.1-15.6-43.32-37.96-49.2l-2.56-.68v-72.68l6.95-13.97 6.16 3.06-6.25 12.53V222c24 7.5 40.52 29.8 40.52 55.12 0 31.88-25.93 57.83-57.82 57.83"/><path fill="#FFC246" d="M71.66 320.88c23.78 0 43.06-19.28 43.06-43.06H28.6c0 23.78 19.28 43.06 43.06 43.06"/><path fill="#3C5CAB" d="M.17 298.7c11 2.94 19.22 25.96 19.22 25.96v138.9h105.3v-138.9c0-14.95 15.3-25.97 15.3-25.97H.16"/><path fill="#2B959A" d="M16.84 461.2h111.93v13.73H16.84V461.2zM59.64 452.2h26.33v12.53H59.64V452.2zM107.2 453.2H39.47l-1-10.34h67.7l1 10.35"/><path fill="#FFC246" d="M81.72 388.18s-2.23-3.4-1.53-7.06l-4.34 2.28s-6.2-4.06-6.56-9.2c0 0-8.24 4.5-14.54 20.52 0 0-2.77-1.3-3.47-3.92 0 0-5.15 31.35 19.55 31.53 0 0 17.33 2.5 20.17-18.04l-3.8 1.7c-.02 0 3.42-12-5.5-17.83"/><path fill="#FF9B46" d="M70.86 422.33c-24.7-.18-19.57-31.53-19.57-31.53.7 2.6 3.45 3.92 3.45 3.92 6.3-16.03 14.55-20.5 14.55-20.5.36 5.12 6.57 9.18 6.57 9.18l4.3-2.28c-.68 3.66 1.55 7.06 1.55 7.06 8.93 5.83 5.5 17.83 5.5 17.83l3.8-1.7c-2.83 20.54-20.16 18.04-20.16 18.04zm33.72-46.1c-1.17 4.35-5.78 6.53-5.78 6.53-10.5-26.7-24.25-34.2-24.25-34.2-.6 8.58-10.95 15.33-10.95 15.33l-7.2-3.8c1.18 6.1-2.54 11.75-2.54 11.75-14.9 9.73-9.16 29.73-9.16 29.73l-6.35-2.9c4.73 34.24 33.6 30.08 33.6 30.08 41.17-.3 32.63-52.55 32.63-52.55z"/><path fill="#3C5CAB" d="M761.24 313.64V316c.67 0 1.24.27 1.68.7.43.44.7 1.02.7 1.7 0 .65-.27 1.23-.7 1.66-.44.43-1 .7-1.68.7-.66 0-1.23-.27-1.67-.7-.43-.43-.7-1-.7-1.67 0-.7.27-1.27.7-1.7.43-.44 1-.7 1.67-.7v-4.75c-3.93 0-7.12 3.2-7.12 7.13 0 3.92 3.2 7.1 7.12 7.1 3.94 0 7.13-3.18 7.13-7.12 0-3.93-3.2-7.12-7.13-7.12v2.38"/><path fill="#FFC246" d="M693.6 295.27v2.37c.43 0 .8.17 1.1.46.3.3.46.68.46 1.12 0 .44-.17.82-.46 1.1-.3.3-.67.47-1.12.47-.44 0-.8-.2-1.1-.48-.3-.3-.47-.67-.47-1.1 0-.45.2-.83.48-1.13.3-.3.68-.47 1.12-.47v-4.75c-1.75 0-3.35.7-4.5 1.84-1.13 1.14-1.84 2.74-1.84 4.48 0 3.5 2.83 6.32 6.33 6.32 1.72 0 3.3-.7 4.45-1.85 1.14-1.14 1.86-2.74 1.85-4.48 0-3.5-2.82-6.34-6.3-6.34v2.37M683.37 319.42v2.37c.3 0 .53.2.53.5 0 .16-.06.27-.16.38-.1.1-.22.14-.37.14s-.27-.05-.37-.15c-.1-.12-.15-.23-.16-.38 0-.3.24-.54.53-.54V317c-1.45 0-2.78.6-3.73 1.54-.95.95-1.55 2.3-1.55 3.74 0 2.9 2.34 5.27 5.26 5.27s5.28-2.37 5.28-5.28c0-1.45-.6-2.8-1.55-3.74-.96-.95-2.3-1.54-3.74-1.54v2.36"/><path fill="#2B959A" d="M640.2 355.66c0 .8.64 1.44 1.43 1.44h106.42c.8 0 1.44-.64 1.44-1.44 0-.8-.66-1.44-1.46-1.44h-106.4c-.8 0-1.44.65-1.44 1.44M643.23 410c0 .8-.66 1.47-1.47 1.47-.8 0-1.47-.66-1.47-1.47v-54.3c0-.82.64-1.48 1.45-1.48.8 0 1.47.66 1.47 1.47V410M669.28 410c0 .8-.66 1.47-1.47 1.47-.8 0-1.45-.66-1.45-1.47v-54.3c0-.82.66-1.48 1.47-1.48.82 0 1.48.66 1.48 1.47V410M716.48 410c0 .8-.66 1.47-1.47 1.47-.8 0-1.45-.66-1.45-1.47v-54.3c0-.82.66-1.48 1.47-1.48.82 0 1.48.66 1.48 1.47V410M749.5 410c0 .8-.67 1.47-1.48 1.47-.8 0-1.46-.66-1.46-1.47v-54.3c0-.82.65-1.48 1.46-1.48.8 0 1.47.66 1.47 1.47V410"/><path fill="#2B959A" d="M739.6 340.63h-2.3v26.66h-12.04V340.6h-2.32v-2h16.67v2zm-18.07-3.4v4.8h2.32v53c0 4.1 3.33 7.44 7.43 7.44s7.42-3.33 7.42-7.43v-53h2.32v-4.8h-19.5zM682.88 340.33v-1.7h17.5v1.7h-2.1v16.46H685V340.3h-2.12zm16.8 25.2v-23.8h2.12v-4.5h-20.33v4.5h2.12v23.8c-6.9 3.15-11.3 10-11.3 17.6 0 10.66 8.66 19.34 19.33 19.34 10.66 0 19.34-8.68 19.34-19.35 0-7.58-4.42-14.44-11.3-17.6z"/><g transform="translate(721 366)"><mask id="d"><use xlink:href="#c"/></mask><path fill="#3C5CAB" d="M18.6-25.37h-2.3V1.3H4.26v-26.67H1.94v-2H18.6v2zM.54-28.77v4.8h2.32v53c0 4.1 3.33 7.44 7.43 7.44s7.4-3.33 7.4-7.43v-53h2.33v-4.8H.53z" mask="url(#d)"/></g><path fill="#2B959A" d="M663.18 340.63h-2.32v26.66h-12.04V340.6h-2.32v-2h16.68v2zm-18.08-3.4v4.8h2.32v53c0 4.1 3.33 7.44 7.42 7.44 4.1 0 7.42-3.33 7.42-7.43v-53h2.32v-4.8h-19.5z"/><g transform="translate(645 366)"><mask id="f"><use xlink:href="#e"/></mask><path fill="#FF9B46" d="M18.18-25.37h-2.32V1.3H3.82v-26.67H1.5v-2h16.68v2zM.1-28.77v4.8h2.32v53c0 4.1 3.33 7.44 7.42 7.44 4.1 0 7.42-3.33 7.42-7.43v-53h2.32v-4.8H.1z" mask="url(#f)"/></g><g transform="translate(670 355)"><mask id="h"><use xlink:href="#g"/></mask><path fill="#FFC246" d="M12.86-14.66v-1.7h17.52v1.7h-2.12V1.8H14.98v-16.46h-2.12zm16.8 25.2v-23.8h2.12v-4.5H11.45v4.5h2.12v23.8c-6.88 3.14-11.3 10-11.3 17.6 0 10.65 8.68 19.33 19.35 19.33 10.66 0 19.34-8.68 19.34-19.34 0-7.6-4.42-14.45-11.3-17.6z" mask="url(#h)"/></g><path fill="#3C5CAB" d="M620.96 430.65h147.76v44.06H620.96v-44.04z"/><path fill="#2B959A" d="M627.18 413.5H762.5v19.26H627.18V413.5z"/><path fill="#FF9B46" d="M717.53 452.68c0 7.08-5.74 12.8-12.8 12.8-7.08 0-12.82-5.72-12.82-12.8 0-7.07 5.76-12.8 12.83-12.8s12.8 5.72 12.8 12.8M715.23 452.68c0 5.8-4.7 10.5-10.5 10.5s-10.52-4.7-10.52-10.5 4.73-10.5 10.53-10.5 10.5 4.7 10.5 10.5"/><path fill="#FFC246" d="M750.27 452.68c0 7.08-5.73 12.8-12.8 12.8-7.08 0-12.8-5.72-12.8-12.8 0-7.07 5.72-12.8 12.8-12.8 7.07 0 12.8 5.72 12.8 12.8M747.97 452.68c0 5.8-4.7 10.5-10.5 10.5s-10.5-4.7-10.5-10.5 4.7-10.5 10.5-10.5 10.5 4.7 10.5 10.5"/><path fill="#FF9B46" d="M655.1 437.7c-6.13 0-11.66 2.47-15.67 6.47l5.92 5.92c2.5-2.5 5.94-4.05 9.74-4.05v-8.37M632.94 459.83h8.37c0-3.8 1.57-7.25 4.06-9.74l-5.92-5.94c-4 4-6.5 9.54-6.5 15.66"/><path fill="#FFC246" d="M655.1 437.7v8.36c3.8 0 7.23 1.54 9.73 4.03l5.9-5.94c-4-4-9.53-6.48-15.64-6.48M677.23 459.83c0-6.12-2.48-11.65-6.5-15.66l-5.9 5.92c2.5 2.47 4.03 5.9 4.03 9.72h8.37"/><path fill="#FF9B46" d="M655.1 458.12h-.13l-4.17-8.96 3.2 9.36c-.38.3-.62.78-.62 1.3 0 .95.76 1.72 1.7 1.72.95 0 1.7-.77 1.7-1.7.02-.96-.75-1.72-1.7-1.72"/></g></svg>