<?xml version="1.0" encoding="utf-8"?>
<!-- Generator: Adobe Illustrator 22.1.0, SVG Export Plug-In . SVG Version: 6.00 Build 0)  -->
<svg version="1.1"
	 id="svg3900" inkscape:version="0.92.2 (5c3e80d, 2017-08-06)" sodipodi:docname="salling-group-short-logo.svg" xmlns:cc="http://creativecommons.org/ns#" xmlns:dc="http://purl.org/dc/elements/1.1/" xmlns:inkscape="http://www.inkscape.org/namespaces/inkscape" xmlns:rdf="http://www.w3.org/1999/02/22-rdf-syntax-ns#" xmlns:sodipodi="http://sodipodi.sourceforge.net/DTD/sodipodi-0.dtd" xmlns:svg="http://www.w3.org/2000/svg"
	 xmlns="http://www.w3.org/2000/svg" xmlns:xlink="http://www.w3.org/1999/xlink" x="0px" y="0px" viewBox="0 0 114.6 38.9"
	 style="enable-background:new 0 0 114.6 38.9;" xml:space="preserve">
<style type="text/css">
	.st0{opacity:0.4;}
	.st1{fill:#FFFFFF;}
</style>
<sodipodi:namedview  bordercolor="#666666" borderopacity="1.0" id="base" inkscape:current-layer="layer1" inkscape:cx="177.46172" inkscape:cy="-47.576644" inkscape:document-units="mm" inkscape:pageopacity="0.0" inkscape:pageshadow="2" inkscape:window-height="1145" inkscape:window-maximized="1" inkscape:window-width="1869" inkscape:window-x="51" inkscape:window-y="27" inkscape:zoom="1.979899" pagecolor="#ffffff" showgrid="false">
	</sodipodi:namedview>
<g id="layer1" transform="translate(-78.059642,-129.11621)" inkscape:groupmode="layer" inkscape:label="Layer 1" class="st0">
	<path id="path3838" inkscape:connector-curvature="0" class="st1" d="M117,158.9h-6.5v-2h-0.1c-1.1,1.8-3.4,2.6-5.5,2.6
		c-5.5,0-9.3-4.6-9.3-9.8c0-5.3,3.7-9.8,9.2-9.8c2.1,0,4.3,0.8,5.7,2.4l1.7-1.8h4.8L117,158.9L117,158.9z M102.3,149.7
		c0,2.3,1.6,4.1,4.2,4.1s4.2-1.8,4.2-4.1s-1.6-4.1-4.2-4.1C103.8,145.5,102.3,147.5,102.3,149.7z"/>
	<path id="path3840" inkscape:connector-curvature="0" class="st1" d="M126.8,158.9h-6.5v-29.8h6.5V158.9z"/>
	<path id="path3842" inkscape:connector-curvature="0" class="st1" d="M136.6,158.9h-6.5v-29.8h6.5V158.9z"/>
	<circle id="circle3844" class="st1" cx="143.2" cy="134.4" r="3.7"/>
	<rect id="rect3846" x="140" y="140.5" class="st1" width="6.5" height="18.4"/>
	<path id="path3848" inkscape:connector-curvature="0" class="st1" d="M156.4,142.9L156.4,142.9c1.6-2.2,3.4-3,5.9-3
		c4.9,0,6.9,3.2,6.9,7.6v11.3h-6.5v-9c0-1.7,0.3-4.9-2.9-4.9c-2.6,0-3.4,2-3.4,4.3v9.6h-6.5v-18.4h4.2L156.4,142.9z"/>
	<path id="path3850" inkscape:connector-curvature="0" class="st1" d="M192.7,157.1c0,7.8-3.9,10.9-10.7,10.9c-4.2,0-9.9-2.2-10.5-7
		h7.3c0.1,0.7,0.7,1.1,1.2,1.4c0.5,0.3,1.3,0.5,1.9,0.5c3.5,0,4.2-2.3,4.2-5.3v-0.8c-1.6,1.6-3.4,2.5-5.9,2.5
		c-5.4,0-9.1-4.1-9.1-9.4c0-5.4,3.8-10,9.4-10c2.2,0,4.1,0.8,5.4,2.6h0.1l2-2h4.6L192.7,157.1z M178,149.6c0,2.3,1.6,4.1,4.2,4.1
		c2.6,0,4.2-1.8,4.2-4.1c0-2.2-1.6-4.1-4.2-4.1C179.5,145.5,178,147.3,178,149.6z"/>
	<rect id="rect3852" x="120.3" y="160.8" class="st1" width="16.3" height="4.7"/>
	<path id="path3854" inkscape:connector-curvature="0" class="st1" d="M88.7,147.2c-0.9-0.1-2.9-0.4-2.9-1.6c0-0.9,1.3-1.3,2-1.3
		s1.4,0.1,2.1,0.4l3.6-3.6c-1.9-0.8-4-1.2-6.1-1.2c-4,0-8.1,2-8.1,6.5c0,3.3,2,4.3,4.1,4.9c2,0.5,4.1,0.6,4.1,2c0,1-1.2,1.4-2,1.4
		c-1.1,0-2.5-0.4-3.7-1.1l-3.7,3.8c2.2,1.4,4.8,2.1,7.4,2.1c4.3,0,8.7-2,8.7-6.8C94,149.3,91.7,147.8,88.7,147.2L88.7,147.2z"/>
</g>
</svg>
