<?xml version="1.0" encoding="UTF-8" standalone="no"?>
<!-- Created with Inkscape (http://www.inkscape.org/) -->

<svg
   xmlns:dc="http://purl.org/dc/elements/1.1/"
   xmlns:cc="http://creativecommons.org/ns#"
   xmlns:rdf="http://www.w3.org/1999/02/22-rdf-syntax-ns#"
   xmlns:svg="http://www.w3.org/2000/svg"
   xmlns="http://www.w3.org/2000/svg"
   xmlns:sodipodi="http://sodipodi.sourceforge.net/DTD/sodipodi-0.dtd"
   xmlns:inkscape="http://www.inkscape.org/namespaces/inkscape"
   width="40.428379mm"
   height="13.73187mm"
   viewBox="0 0 40.428379 13.73187"
   version="1.1"
   id="svg3900"
   inkscape:version="0.92.2 (5c3e80d, 2017-08-06)"
   sodipodi:docname="salling-group-short-logo.svg">
  <defs
     id="defs3894" />
  <sodipodi:namedview
     id="base"
     pagecolor="#ffffff"
     bordercolor="#666666"
     borderopacity="1.0"
     inkscape:pageopacity="0.0"
     inkscape:pageshadow="2"
     inkscape:zoom="1.979899"
     inkscape:cx="177.46172"
     inkscape:cy="-47.576644"
     inkscape:document-units="mm"
     inkscape:current-layer="layer1"
     showgrid="false"
     inkscape:window-width="1869"
     inkscape:window-height="1145"
     inkscape:window-x="51"
     inkscape:window-y="27"
     inkscape:window-maximized="1" />
  <metadata
     id="metadata3897">
    <rdf:RDF>
      <cc:Work
         rdf:about="">
        <dc:format>image/svg+xml</dc:format>
        <dc:type
           rdf:resource="http://purl.org/dc/dcmitype/StillImage" />
        <dc:title></dc:title>
      </cc:Work>
    </rdf:RDF>
  </metadata>
  <g
     inkscape:label="Layer 1"
     inkscape:groupmode="layer"
     id="layer1"
     transform="translate(-78.059642,-129.11621)">
    <path
       inkscape:connector-curvature="0"
       class="st0"
       d="m 91.791517,139.62016 h -2.301875 v -0.71437 h -0.02646 c -0.396875,0.635 -1.190625,0.92604 -1.957917,0.92604 -1.931459,0 -3.280834,-1.61396 -3.280834,-3.46604 0,-1.85208 1.322917,-3.46604 3.254375,-3.46604 0.740834,0 1.534584,0.29104 2.010834,0.84666 l 0.608542,-0.635 h 1.693333 c 0,0 0,6.50875 0,6.50875 z m -5.185834,-3.22791 c 0,0.82021 0.555625,1.45521 1.481667,1.45521 0.926042,0 1.481667,-0.635 1.481667,-1.45521 0,-0.79375 -0.555625,-1.45521 -1.481667,-1.45521 -0.9525,-0.0265 -1.481667,0.66146 -1.481667,1.45521 z"
       id="path3838"
       style="stroke-width:0.26458332;fill:#ffffff" />
    <path
       inkscape:connector-curvature="0"
       class="st0"
       d="m 95.257559,139.62016 h -2.301875 v -10.50395 h 2.301875 z"
       id="path3840"
       style="stroke-width:0.26458332;fill:#ffffff" />
    <path
       inkscape:connector-curvature="0"
       class="st0"
       d="M 98.7236,139.62016 H 96.421725 V 129.11621 H 98.7236 Z"
       id="path3842"
       style="stroke-width:0.26458332;fill:#ffffff" />
    <circle
       class="st0"
       cx="101.05193"
       cy="130.96829"
       r="1.2964584"
       id="circle3844"
       style="stroke-width:0.26458332;fill:#ffffff" />
    <rect
       x="99.914223"
       y="133.13788"
       class="st0"
       width="2.3018749"
       height="6.4822917"
       id="rect3846"
       style="stroke-width:0.26458332;fill:#ffffff" />
    <path
       inkscape:connector-curvature="0"
       class="st0"
       d="m 105.68214,133.98454 v 0 c 0.55563,-0.79375 1.19063,-1.05833 2.09021,-1.05833 1.74625,0 2.43417,1.11125 2.43417,2.69875 v 3.9952 h -2.30188 v -3.175 c 0,-0.60854 0.10584,-1.71979 -1.03187,-1.71979 -0.92604,0 -1.19063,0.68792 -1.19063,1.50813 v 3.38666 h -2.30187 v -6.48229 h 1.48166 z"
       id="path3848"
       style="stroke-width:0.26458332;fill:#ffffff" />
    <path
       inkscape:connector-curvature="0"
       class="st0"
       d="m 118.48798,138.98516 c 0,2.75167 -1.37584,3.86292 -3.75709,3.86292 -1.48166,0 -3.4925,-0.76729 -3.70416,-2.48708 h 2.59291 c 0.0529,0.23812 0.23813,0.39687 0.42334,0.50271 0.1852,0.10583 0.44979,0.15875 0.66145,0.15875 1.24355,0 1.48167,-0.82021 1.48167,-1.85209 v -0.29104 c -0.58208,0.58208 -1.19062,0.87313 -2.06375,0.87313 -1.905,0 -3.20146,-1.45521 -3.20146,-3.3073 0,-1.905 1.34938,-3.51895 3.33375,-3.51895 0.76729,0 1.45521,0.26458 1.905,0.89958 h 0.0265 l 0.68792,-0.68792 h 1.61396 z m -5.18584,-2.64583 c 0,0.82021 0.55563,1.45521 1.48167,1.45521 0.92604,0 1.48167,-0.635 1.48167,-1.45521 0,-0.79375 -0.55563,-1.45521 -1.48167,-1.45521 -0.92604,0 -1.48167,0.66146 -1.48167,1.45521 z"
       id="path3850"
       style="stroke-width:0.26458332;fill:#ffffff" />
    <rect
       x="92.955681"
       y="140.30807"
       class="st0"
       width="5.7414584"
       height="1.666875"
       id="rect3852"
       style="stroke-width:0.26458332;fill:#ffffff" />
    <path
       inkscape:connector-curvature="0"
       class="st0"
       d="m 81.816725,135.49266 c -0.3175,-0.0529 -1.031875,-0.13229 -1.031875,-0.58208 0,-0.3175 0.449792,-0.44979 0.714375,-0.44979 0.238125,0 0.502708,0.0529 0.740833,0.13229 l 1.27,-1.27 c -0.661458,-0.29104 -1.402291,-0.42333 -2.143125,-0.42333 -1.42875,0 -2.8575,0.71437 -2.8575,2.30187 0,1.16417 0.714375,1.50813 1.455209,1.71979 0.714375,0.18521 1.455208,0.21167 1.455208,0.71438 0,0.34396 -0.423333,0.50271 -0.714375,0.50271 -0.396875,0 -0.899583,-0.15875 -1.322917,-0.37042 l -1.322916,1.32292 c 0.79375,0.47625 1.693333,0.74083 2.619375,0.74083 1.508125,0 3.069166,-0.71437 3.069166,-2.40771 -0.05292,-1.19062 -0.873125,-1.71979 -1.931458,-1.93146 z"
       id="path3854"
       style="stroke-width:0.26458332;fill:#ffffff" />
  </g>
</svg>
