<?xml version="1.0" encoding="UTF-8" standalone="no"?>
<svg width="19px" height="21px" viewBox="0 0 19 21" version="1.1" xmlns="http://www.w3.org/2000/svg" xmlns:xlink="http://www.w3.org/1999/xlink" xmlns:sketch="http://www.bohemiancoding.com/sketch/ns">
    <!-- Generator: Sketch 3.5.2 (25235) - http://www.bohemiancoding.com/sketch -->
    <title>trash</title>
    <desc>Created with Sketch.</desc>
    <defs></defs>
    <g id="Page-1" stroke="none" stroke-width="1" fill="none" fill-rule="evenodd" sketch:type="MSPage">
        <g id="Artboard-1" sketch:type="MSArtboardGroup" transform="translate(-158.000000, -49.000000)" fill="#C2C9CC">
            <path d="M164.857151,57.2857015 C164.857151,57.0446298 164.669651,56.8571296 164.428579,56.8571296 L163.571435,56.8571296 C163.330363,56.8571296 163.142863,57.0446298 163.142863,57.2857015 L163.142863,64.9999964 C163.142863,65.2410681 163.330363,65.4285684 163.571435,65.4285684 L164.428579,65.4285684 C164.669651,65.4285684 164.857151,65.2410681 164.857151,64.9999964 L164.857151,57.2857015 Z M168.285727,57.2857015 C168.285727,57.0446298 168.098226,56.8571296 167.857155,56.8571296 L167.000011,56.8571296 C166.758939,56.8571296 166.571439,57.0446298 166.571439,57.2857015 L166.571439,64.9999964 C166.571439,65.2410681 166.758939,65.4285684 167.000011,65.4285684 L167.857155,65.4285684 C168.098226,65.4285684 168.285727,65.2410681 168.285727,64.9999964 L168.285727,57.2857015 Z M171.714302,57.2857015 C171.714302,57.0446298 171.526802,56.8571296 171.28573,56.8571296 L170.428586,56.8571296 C170.187515,56.8571296 170.000014,57.0446298 170.000014,57.2857015 L170.000014,64.9999964 C170.000014,65.2410681 170.187515,65.4285684 170.428586,65.4285684 L171.28573,65.4285684 C171.526802,65.4285684 171.714302,65.2410681 171.714302,64.9999964 L171.714302,57.2857015 Z M173.42859,66.9821416 C173.42859,67.6249996 173.066982,68 173.000018,68 L161.857147,68 C161.790183,68 161.428576,67.6249996 161.428576,66.9821416 L161.428576,54.2856979 L173.42859,54.2856979 L173.42859,66.9821416 Z M164.428579,52.5714102 L165.08483,51.004444 C165.125008,50.9508725 165.232151,50.8705153 165.312509,50.8571224 L169.558049,50.8571224 C169.625014,50.8705153 169.74555,50.9508725 169.785728,51.004444 L170.428586,52.5714102 L164.428579,52.5714102 Z M176.857165,52.9999821 C176.857165,52.7589104 176.669665,52.5714102 176.428593,52.5714102 L172.290196,52.5714102 L171.352694,50.3348004 C171.084837,49.6785496 170.281265,49.1428347 169.571442,49.1428347 L165.285723,49.1428347 C164.575901,49.1428347 163.772328,49.6785496 163.504471,50.3348004 L162.56697,52.5714102 L158.428572,52.5714102 C158.1875,52.5714102 158,52.7589104 158,52.9999821 L158,53.857126 C158,54.0981977 158.1875,54.2856979 158.428572,54.2856979 L159.714288,54.2856979 L159.714288,67.0357131 C159.714288,68.5089292 160.678575,69.7142878 161.857147,69.7142878 L173.000018,69.7142878 C174.178591,69.7142878 175.142878,68.4553577 175.142878,66.9821416 L175.142878,54.2856979 L176.428593,54.2856979 C176.669665,54.2856979 176.857165,54.0981977 176.857165,53.857126 L176.857165,52.9999821 Z" id="trash" sketch:type="MSShapeGroup"></path>
        </g>
    </g>
</svg>