<svg xmlns="http://www.w3.org/2000/svg" width="19" height="21"><title>trash</title><desc>Created with Sketch.</desc><g fill="none"><g fill="#C2C9CC"><path d="M6.86 8.3c0-.26-.2-.44-.43-.44h-.86c-.24 0-.43.18-.43.43V16c0 .24.2.43.43.43h.86c.24 0 .43-.2.43-.43V8.3zm3.43 0c0-.26-.2-.44-.44-.44H9c-.24 0-.43.18-.43.43V16c0 .24.2.43.43.43h.86c.24 0 .43-.2.43-.43V8.3zm3.4 0c0-.26-.17-.44-.4-.44h-.87c-.24 0-.43.18-.43.43V16c0 .24.2.43.43.43h.86c.23 0 .4-.2.4-.43V8.3zm1.73 9.68c0 .64-.36 1.02-.43 1.02H3.86c-.07 0-.43-.38-.43-1.02V5.28h12V18zm-9-14.4L7.08 2c.05-.05.15-.13.23-.14h4.26c.07 0 .2.1.23.14l.63 1.57h-6zM18.86 4c0-.24-.2-.43-.43-.43H14.3l-.95-2.24c-.27-.65-1.07-1.2-1.78-1.2H7.3c-.72 0-1.53.55-1.8 1.2l-.93 2.24H.43C.2 3.57 0 3.77 0 4v.86c0 .24.2.43.43.43H1.7v12.74c0 1.47.98 2.67 2.16 2.67H15c1.18 0 2.14-1.24 2.14-2.72V5.28h1.3c.23 0 .42-.18.42-.42V4z"/></g></g></svg>