<svg xmlns="http://www.w3.org/2000/svg" width="27" height="21"><title>twitter--inverse</title><desc>Created with Sketch.</desc><g fill="none"><g fill="#fff"><path d="M26.27 2.5c-.97.4-2.02.7-3.1.8 1.1-.64 1.96-1.68 2.36-2.9-1.03.6-2.2 1.04-3.4 1.27C21.12.64 19.72 0 18.17 0 15.2 0 12.8 2.38 12.8 5.3c0 .4.05.82.13 1.2C8.47 6.3 4.48 4.2 1.83.98c-.46.8-.73 1.7-.73 2.67 0 1.84.95 3.46 2.4 4.42-.88-.04-1.72-.28-2.43-.68v.07c0 2.57 1.85 4.7 4.3 5.2-.44.1-.92.18-1.4.18-.35 0-.7-.03-1.02-.08.68 2.1 2.67 3.62 5.03 3.67-1.85 1.43-4.16 2.27-6.68 2.27-.45 0-.87-.03-1.3-.08C2.38 20.12 5.22 21 8.27 21c9.9 0 15.3-8.07 15.3-15.08 0-.23 0-.46 0-.7 1.05-.74 1.96-1.68 2.7-2.73z"/></g></g></svg>