<?xml version="1.0" encoding="UTF-8" standalone="no"?>
<svg width="27px" height="21px" viewBox="0 0 27 21" version="1.1" xmlns="http://www.w3.org/2000/svg" xmlns:xlink="http://www.w3.org/1999/xlink" xmlns:sketch="http://www.bohemiancoding.com/sketch/ns">
    <!-- Generator: Sketch 3.5.2 (25235) - http://www.bohemiancoding.com/sketch -->
    <title>twitter--inverse</title>
    <desc>Created with Sketch.</desc>
    <defs></defs>
    <g id="Page-1" stroke="none" stroke-width="1" fill="none" fill-rule="evenodd" sketch:type="MSPage">
        <g id="Artboard-1" sketch:type="MSArtboardGroup" transform="translate(-106.000000, -161.000000)" fill="#FFFFFF">
            <path d="M132.266699,163.49375 C131.300031,163.903906 130.25003,164.199219 129.166695,164.314063 C130.283363,163.657813 131.133364,162.624219 131.533365,161.39375 C130.50003,162.000781 129.333362,162.44375 128.116694,162.673438 C127.133359,161.639844 125.733357,161 124.183356,161 C121.200019,161 118.800016,163.378906 118.800016,166.299219 C118.800016,166.709375 118.850016,167.119531 118.933349,167.513281 C114.466677,167.283594 110.483339,165.183594 107.833336,161.967969 C107.366668,162.755469 107.100001,163.657813 107.100001,164.642188 C107.100001,166.479688 108.050003,168.103906 109.500004,169.055469 C108.61667,169.022656 107.783336,168.776563 107.066668,168.382812 L107.066668,168.448438 C107.066668,171.024219 108.91667,173.157031 111.38334,173.649219 C110.933339,173.764062 110.450005,173.829688 109.966672,173.829688 C109.616671,173.829688 109.283337,173.796875 108.950004,173.747656 C109.633338,175.847656 111.616674,177.373437 113.983343,177.422656 C112.133341,178.85 109.816671,179.686719 107.300002,179.686719 C106.850001,179.686719 106.433334,179.670312 106,179.621094 C108.383336,181.130469 111.216673,182 114.266677,182 C124.166689,182 129.583362,173.928125 129.583362,166.922656 C129.583362,166.692969 129.583362,166.463281 129.566696,166.233594 C130.616697,165.478906 131.533365,164.54375 132.266699,163.49375 L132.266699,163.49375 Z" id="twitter--inverse" sketch:type="MSShapeGroup"></path>
        </g>
    </g>
</svg>