<svg xmlns="http://www.w3.org/2000/svg" width="33" height="24"><title>twitter</title><desc>Created with Sketch.</desc><g fill="none"><g stroke="#8A9499" stroke-width="1.5"><path d="M30.27 4.5c-.97.4-2.02.7-3.1.8 1.1-.64 1.96-1.68 2.36-2.9-1.03.6-2.2 1.04-3.4 1.27-1-1.03-2.4-1.67-3.95-1.67-2.98 0-5.38 2.38-5.38 5.3 0 .4.05.82.13 1.2-4.46-.22-8.45-2.32-11.1-5.53-.46.8-.73 1.7-.73 2.67 0 1.84.95 3.46 2.4 4.42-.88-.04-1.72-.28-2.43-.68v.07c0 2.57 1.85 4.7 4.3 5.2-.44.1-.92.18-1.4.18-.35 0-.7-.03-1.02-.08.68 2.1 2.67 3.62 5.03 3.67-1.85 1.43-4.16 2.27-6.68 2.27-.45 0-.87-.03-1.3-.08C6.38 22.12 9.22 23 12.27 23c9.9 0 15.3-8.07 15.3-15.08 0-.23 0-.46 0-.7 1.05-.74 1.96-1.68 2.7-2.73z"/></g></g></svg>