<?xml version="1.0" encoding="UTF-8" standalone="no"?>
<svg width="33px" height="24px" viewBox="0 0 33 24" version="1.1" xmlns="http://www.w3.org/2000/svg" xmlns:xlink="http://www.w3.org/1999/xlink" xmlns:sketch="http://www.bohemiancoding.com/sketch/ns">
    <!-- Generator: Sketch 3.5.2 (25235) - http://www.bohemiancoding.com/sketch -->
    <title>twitter</title>
    <desc>Created with Sketch.</desc>
    <defs></defs>
    <g id="Page-1" stroke="none" stroke-width="1" fill="none" fill-rule="evenodd" sketch:type="MSPage">
        <g id="Artboard-1" sketch:type="MSArtboardGroup" transform="translate(-102.000000, -120.000000)" stroke="#8A9499" stroke-width="1.5">
            <path d="M132.266699,124.49375 C131.300031,124.903906 130.25003,125.199219 129.166695,125.314063 C130.283363,124.657813 131.133364,123.624219 131.533365,122.39375 C130.50003,123.000781 129.333362,123.44375 128.116694,123.673438 C127.133359,122.639844 125.733357,122 124.183356,122 C121.200019,122 118.800016,124.378906 118.800016,127.299219 C118.800016,127.709375 118.850016,128.119531 118.933349,128.513281 C114.466677,128.283594 110.483339,126.183594 107.833336,122.967969 C107.366668,123.755469 107.100001,124.657813 107.100001,125.642188 C107.100001,127.479687 108.050003,129.103906 109.500004,130.055469 C108.61667,130.022656 107.783336,129.776563 107.066668,129.382812 L107.066668,129.448438 C107.066668,132.024219 108.91667,134.157031 111.38334,134.649219 C110.933339,134.764062 110.450005,134.829688 109.966672,134.829688 C109.616671,134.829688 109.283337,134.796875 108.950004,134.747656 C109.633338,136.847656 111.616674,138.373437 113.983343,138.422656 C112.133341,139.85 109.816671,140.686719 107.300002,140.686719 C106.850001,140.686719 106.433334,140.670312 106,140.621094 C108.383336,142.130469 111.216673,143 114.266677,143 C124.166689,143 129.583362,134.928125 129.583362,127.922656 C129.583362,127.692969 129.583362,127.463281 129.566696,127.233594 C130.616697,126.478906 131.533365,125.54375 132.266699,124.49375 L132.266699,124.49375 Z" id="twitter" sketch:type="MSShapeGroup"></path>
        </g>
    </g>
</svg>